<?xml version="1.0"?>
<svg xmlns="http://www.w3.org/2000/svg" viewBox="0 0 512 512" width="512px" height="512px" class=""><g><path d="m436.949219 74.980469c-48.34375-48.351563-112.621094-74.980469-180.988281-74.980469-63.984376 0-125.234376 23.734375-172.46875 66.835938-3.058594 2.792968-3.273438 7.535156-.484376 10.59375 2.792969 3.058593 7.535157 3.277343 10.597657.484374 44.460937-40.570312 102.121093-62.914062 162.355469-62.914062 64.359374 0 124.871093 25.066406 170.382812 70.585938 45.511719 45.519531 70.574219 106.042968 70.574219 170.414062s-25.0625 124.894531-70.574219 170.414062c-45.511719 45.519532-106.023438 70.585938-170.382812 70.585938-64.363282 0-124.875-25.066406-170.386719-70.585938-45.511719-45.519531-70.574219-106.039062-70.574219-170.414062 0-54.847656 17.945312-106.519531 51.898438-149.429688 2.570312-3.25 2.019531-7.964843-1.230469-10.535156-3.246094-2.570312-7.964844-2.019531-10.535157 1.226563-36.066406 45.589843-55.132812 100.476562-55.132812 158.738281 0 68.378906 26.625 132.667969 74.96875 181.019531 48.34375 48.351563 112.621094 74.980469 180.992188 74.980469 68.367187 0 132.644531-26.628906 180.988281-74.980469 48.34375-48.351562 74.96875-112.640625 74.96875-181.019531s-26.625-132.667969-74.96875-181.019531zm0 0" data-original="#000000" class="active-path" data-old_color="#49c049" fill="#49c049"/><path d="m311.703125 374.136719c-3.777344 1.695312-5.464844 6.136719-3.769531 9.914062 1.699218 3.777344 6.140625 5.460938 9.914062 3.769531 36.542969-16.410156 62.59375-45.761718 77.433594-87.234374 1.222656-3.414063.699219-7.222657-1.394531-10.1875-2.089844-2.960938-5.492188-4.722657-9.109375-4.722657-.007813 0-.015625 0-.023438 0l-5.9375.007813c-10.652344.007812-20.714844.015625-30.921875.527344-6.898437.34375-11.597656 7.738281-12.871093 10-11.160157 19.761718-28.347657 34.824218-48.40625 42.402343-20.042969 7.578125-42.136719 7.332031-62.210938-.691406-7.355469-2.941406-14.492188-7.394531-22.046875-12.113281-1.164063-.722656-2.339844-1.457032-3.527344-2.195313l9.976563-9.980469c3.089844-3.089843 4.007812-7.695312 2.335937-11.734374-1.671875-4.039063-5.578125-6.648438-9.949219-6.648438l-61.417968-.019531h-.003906c-3.222657 0-6.253907 1.253906-8.539063 3.53125-2.289063 2.285156-3.546875 5.324219-3.546875 8.554687l.003906 6.929688c.007813 17.792968.019532 42.164062.296875 54.414062.097657 4.316406 2.746094 8.144532 6.75 9.75 4.011719 1.609375 8.574219.675782 11.628907-2.382812l11.558593-11.558594c30.441407 25.222656 62.695313 37.902344 96.292969 37.902344 10.167969 0 20.46875-1.164063 30.867188-3.492188 4.042968-.90625 6.585937-4.914062 5.679687-8.957031s-4.917969-6.585937-8.957031-5.679687c-41.824219 9.363281-81.964844-2.613282-119.316406-35.605469-2.96875-2.621094-7.464844-2.484375-10.269532.316406l-9.386718 9.390625c-.128907-12.863281-.136719-30.433594-.144532-44.105469v-4.003906l48.292969.011719-9.546875 9.546875c-1.648438 1.648437-2.4375 3.972656-2.132812 6.285156.308593 2.3125 1.671874 4.351563 3.691406 5.515625 3.941406 2.273438 7.742187 4.644531 11.417968 6.941406 8.136719 5.078125 15.824219 9.878906 24.425782 13.316406 23.5625 9.417969 49.515625 9.703126 73.082031.796876 23.335937-8.820313 43.28125-26.246094 56.164063-49.0625.585937-1.039063 1.324218-1.941407 1.832031-2.457032 9.417969-.429687 18.894531-.4375 28.90625-.445312h.40625c-13.777344 35.195312-35.910157 59.253906-67.527344 73.453125zm0 0" data-original="#000000" class="active-path" data-old_color="#49c049" fill="#49c049"/><path d="m375.636719 135.105469c-3.949219-1.632813-8.445313-.738281-11.464844 2.285156l-10.214844 10.214844c-45.953125-38.542969-96.898437-47.792969-151.53125-27.46875-39.644531 14.746093-72.5625 49.6875-85.90625 91.1875-1.082031 3.355469-.484375 7.066406 1.589844 9.921875 2.085937 2.871094 5.453125 4.59375 9 4.601562l5.527344.019532c3.179687.015624 6.390625.027343 9.621093.027343 7.277344 0 14.648438-.066406 21.933594-.347656 6.121094-.238281 10.347656-6.144531 12.324219-9.644531 15.789063-27.964844 42.03125-45.433594 71.996094-47.917969 4.128906-.34375 7.199219-3.96875 6.855469-8.09375-.34375-4.128906-3.96875-7.195313-8.09375-6.855469-34.480469 2.859375-65.816407 23.605469-83.824219 55.496094-.496094.875-1.039063 1.609375-1.453125 2.085938-9.652344.332031-19.210938.292968-29.296875.25h-.152344c12.835937-34.535157 41.820313-64.289063 75.109375-76.671876 25.917969-9.644531 51.03125-11.984374 74.648438-6.960937 23.164062 4.929687 45.710937 17.105469 67.007812 36.199219 2.964844 2.660156 7.496094 2.535156 10.3125-.28125l7.527344-7.53125.0625 45.503906-45.898438-.082031 7.308594-7.3125c2.925781-2.925781 2.929688-7.667969.003906-10.597657-13.191406-13.21875-28.109375-21.964843-45.613281-26.746093-3.996094-1.085938-8.121094 1.261719-9.210937 5.261719-1.089844 3.996093 1.261718 8.117187 5.257812 9.210937 12.546875 3.421875 23.554688 9.261719 33.457031 17.765625l-9.425781 9.429688c-3.019531 3.019531-3.917969 7.519531-2.285156 11.464843 1.628906 3.941407 5.4375 6.496094 9.707031 6.503907l59.617187.105468h.019532c3.222656 0 6.253906-1.253906 8.53125-3.53125 2.285156-2.285156 3.539062-5.324218 3.535156-8.554687l-.078125-59.222657c-.003906-4.269531-2.558594-8.082031-6.503906-9.714843zm0 0" data-original="#000000" class="active-path" data-old_color="#49c049" fill="#49c049"/></g> </svg>
